<?xml version="1.0" encoding="UTF-8" standalone="no"?>
<!-- Created with Inkscape (http://www.inkscape.org/) -->

<svg
   width="1024"
   height="1024"
   viewBox="0 0 270.93332 270.93334"
   version="1.1"
   id="svg1"
   xml:space="preserve"
   xmlns="http://www.w3.org/2000/svg"
   xmlns:svg="http://www.w3.org/2000/svg"><defs
     id="defs1" /><g
     id="layer2"><path
       id="path1-6-7-5"
       style="fill:#66cc99;fill-opacity:1;stroke-width:13.8145;stroke-linecap:round;stroke-linejoin:round;stroke-dasharray:96.702, 96.702, 41.4435, 20.7218;stroke-dashoffset:343.981"
       d="m 137.18628,169.33688 v 83.92074 a 41.818051,42.041843 0 0 0 6.71325,-0.8435 v -82.25494 a 41.818051,42.041843 0 0 0 -6.71325,-0.8223 z m -3.35727,0.0776 a 41.818051,42.041843 0 0 0 -3.35725,0.24155 v 83.36181 a 41.818051,42.041843 0 0 0 3.35725,0.24156 z m -6.71452,0.83963 a 41.818051,42.041843 0 0 0 -6.71325,1.98571 v 78.19424 a 41.818051,42.041843 0 0 0 6.71325,1.9857 z m 23.49893,1.89899 v 78.27068 a 41.818051,42.041843 0 0 0 3.35662,-1.45059 v -75.33994 a 41.818051,42.041843 0 0 0 -3.35662,-1.48011 z m -36.92672,3.37588 a 41.818051,42.041843 0 0 0 -6.71325,5.17595 v 61.26401 a 41.818051,42.041843 0 0 0 6.71325,5.17593 z m 46.99788,2.25938 v 66.97251 a 41.818051,42.041843 0 0 0 3.35661,-2.8202 v -61.31022 a 41.818051,42.041843 0 0 0 -3.35661,-2.84204 z m -57.06839,6.3837 a 41.818051,42.041843 0 0 0 -3.35662,4.53545 v 45.25884 a 41.818051,42.041843 0 0 0 3.35662,4.53548 z m 63.78162,0.002 v 54.28992 a 41.818051,42.041843 0 0 0 9.91377,-27.12794 41.818051,42.041843 0 0 0 -9.91377,-27.16198 z m -70.494861,11.18448 a 41.818051,42.041843 0 0 0 -3.227494,15.9775 41.818051,42.041843 0 0 0 3.227494,15.97817 z" /></g></svg>
